#!OML:ASF E:\Steps\Project 1\Capture day 1\Session 2\Subject.ASF
:FULLY-SPECIFIED
:DEGREES
164
root 16.8681 16.2659 21.7285 -156.722 -9.36647 175.913
lowerback -23.9813 -0.715107 -6.46089
upperback 1.17253 0.853673 -0.721963
thorax 14.8313 -0.160957 3.16501
lowerneck -5.0058 2.44674 -0.469575
upperneck 11.2364 2.7416 2.97847
head 4.56624 1.37266 1.23526
rclavicle 2.54941e-014 -4.01794e-014
rhumerus -34.1485 -19.22 -78.2473
rradius 31.0218
rwrist -0.241302
rhand -10.2555 -409.767
rfingers 7.12502
rthumb 15.7376 -439.147
lclavicle 2.54941e-014 -4.01794e-014
lhumerus -29.8276 3.14851 83.2205
lradius 25.6731
lwrist -1.8454
lhand -22.7967 -15.1089
lfingers 7.12502
lthumb 3.63945 14.8398
rfemur -25.3194 4.36885 21.0806
rtibia 15.7173
rfoot -22.5999 -7.19186
rtoes -8.56214
lfemur -39.1196 -13.4049 -19.0957
ltibia 36.7324
lfoot -7.61216 -5.06542
ltoes -23.63
165
root 16.8819 16.2666 21.739 -156.681 -9.66237 175.741
lowerback -23.9018 -0.774667 -6.57036
upperback 1.2597 0.808528 -0.699718
thorax 14.8944 -0.191879 3.23709
lowerneck -5.12491 2.48481 -0.548981
upperneck 11.2834 2.80214 2.98132
head 4.60523 1.40137 1.25716
rclavicle 1.08959e-014 -6.60959e-015
rhumerus -33.9115 -19.3666 -78.1452
rradius 30.8456
rwrist -0.172428
rhand -10.7382 -410.304
rfingers 7.12502
rthumb 15.2727 -439.72
lclavicle 1.08959e-014 -6.60959e-015
lhumerus -29.6985 3.26185 83.2555
lradius 25.599
lwrist -1.70507
lhand -22.4435 -14.1597
lfingers 7.12502
lthumb 3.98052 15.7828
rfemur -25.397 4.26767 20.9684
rtibia 15.8211
rfoot -22.7014 -7.43247
rtoes -8.3177
lfemur -40.1428 -13.072 -19.3176
ltibia 38.3465
lfoot -6.78378 -5.39558
ltoes -24.4575
166
root 16.8982 16.2691 21.7459 -156.605 -9.89295 175.628
lowerback -23.8688 -0.802919 -6.69306
upperback 1.28841 0.803376 -0.666557
thorax 14.9093 -0.205686 3.3439
lowerneck -5.11824 2.60775 -0.603559
upperneck 11.3222 2.97089 2.99115
head 4.61337 1.48251 1.27991
rclavicle 1.55052e-014 -1.61016e-014
rhumerus -33.807 -19.3523 -78.1323
rradius 30.8471
rwrist 0.0672294
rhand -10.2757 -413.177
rfingers 7.12502
rthumb 15.7182 -442.559
lclavicle 1.55052e-014 -1.61016e-014
lhumerus -29.6806 3.37992 83.2649
lradius 25.4642
lwrist -1.45689
lhand -22.4135 -14.2293
lfingers 7.12502
lthumb 4.0095 15.7127
rfemur -25.533 4.18965 20.9496
rtibia 15.9421
rfoot -22.7669 -7.61564
rtoes -8.24186
lfemur -41.1929 -12.6826 -19.4436
ltibia 39.9127
lfoot -6.01384 -5.70721
ltoes -25.0424
167
root 16.9067 16.2755 21.7483 -156.751 -10.1658 175.581
lowerback -23.6357 -0.792776 -6.68569
upperback 1.32366 0.79609 -0.60538
thorax 14.817 -0.205611 3.40628
lowerneck -4.97199 2.64471 -0.568208
upperneck 11.3637 3.02832 2.85383
head 4.59987 1.50296 1.22743
rclavicle 5.23301e-014 2.09718e-014
rhumerus -33.822 -19.4935 -77.9073
rradius 30.8339
rwrist -0.164363
rhand -10.8432 -411.118
rfingers 7.12502
rthumb 15.1715 -440.542
lclavicle 5.23301e-014 2.09718e-014
lhumerus -29.8698 3.51377 83.3027
lradius 25.3616
lwrist -1.56346
lhand -22.3156 -14.6627
lfingers 7.12502
lthumb 4.10398 15.2775
rfemur -25.4168 4.02606 20.9685
rtibia 16.0569
rfoot -22.7568 -7.72656
rtoes -7.47289
lfemur -42.0042 -12.4339 -19.5818
ltibia 41.6758
lfoot -5.67516 -5.80319
ltoes -26.6926
168
root 16.8962 16.2858 21.7554 -157.213 -10.8236 175.559
lowerback -23.0168 -0.818544 -6.29138
upperback 1.44921 0.618486 -0.544832
thorax 14.6299 -0.244229 3.18378
lowerneck -4.93535 2.53791 -0.573484
upperneck 11.4819 2.88879 2.74648
head 4.64001 1.42615 1.18578
rclavicle -3.47873e-014 2.70347e-014
rhumerus -33.8415 -19.5577 -77.6715
rradius 30.8891
rwrist -0.0872147
rhand -11.5363 -408.637
rfingers 7.12502
rthumb 14.5038 -438.11
lclavicle -3.47873e-014 2.70347e-014
lhumerus -30.0812 3.66409 83.3479
lradius 25.3689
lwrist -1.76731
lhand -22.2298 -14.7454
lfingers 7.12502
lthumb 4.18684 15.1932
rfemur -24.8393 3.40692 20.9723
rtibia 16.0051
rfoot -23.0307 -7.7442
rtoes -6.11722
lfemur -42.6581 -12.6622 -19.7548
ltibia 44.003
lfoot -5.8681 -6.00962
ltoes -26.4525
169
root 16.8974 16.2852 21.7566 -157.079 -10.7973 175.217
lowerback -23.0933 -0.818658 -6.50504
upperback 1.46351 0.688277 -0.585687
thorax 14.6838 -0.23086 3.2837
lowerneck -4.92248 2.43546 -0.626889
upperneck 11.5737 2.74965 2.73851
head 4.67328 1.35293 1.18645
rclavicle 2.15681e-014 4.7112e-014
rhumerus -33.8142 -19.5216 -77.4377
rradius 30.8965
rwrist 0.172271
rhand -10.9649 -409.192
rfingers 7.12502
rthumb 15.0543 -438.625
lclavicle 2.15681e-014 4.7112e-014
lhumerus -30.1955 3.65228 83.4642
lradius 25.2889
lwrist -1.83458
lhand -22.1323 -14.3463
lfingers 7.12502
lthumb 4.28102 15.5904
rfemur -25.1111 3.29095 20.5693
rtibia 16.3881
rfoot -23.3547 -7.6578
rtoes -5.25181
lfemur -43.8344 -11.97 -20.4903
ltibia 45.9823
lfoot -6.36517 -6.04383
ltoes -35.3516
170
root 16.9519 16.2616 21.7837 -156.005 -10.7516 175.068
lowerback -23.6964 -0.906586 -7.17411
upperback 1.14232 0.754239 -0.513474
thorax 14.6339 -0.262466 3.77696
lowerneck -4.94404 2.44906 -0.657647
upperneck 11.6233 2.75924 2.81272
head 4.69439 1.35948 1.2191
rclavicle -4.13969e-014 -3.37934e-015
rhumerus -33.6501 -19.7856 -77.2767
rradius 30.6833
rwrist 0.575251
rhand -9.95723 -410.902
rfingers 7.12502
rthumb 16.0248 -440.26
lclavicle -4.13969e-014 -3.37934e-015
lhumerus -30.2293 3.37584 83.568
lradius 25.1873
lwrist -1.78148
lhand -22.1133 -14.1321
lfingers 7.12502
lthumb 4.29937 15.8043
rfemur -26.7729 3.88414 20.7222
rtibia 17.3001
rfoot -23.5177 -8.0575
rtoes -6.29453
lfemur -46.4746 -10.2902 -20.7938
ltibia 48.6534
lfoot -6.66288 -7.32738
ltoes -36.5157
171
root 16.9062 16.2876 21.7583 -157.012 -11.1084 174.603
lowerback -22.9997 -0.766729 -6.73841
upperback 1.55522 0.850142 -0.809327
thorax 14.7244 -0.168513 3.21408
lowerneck -4.97909 2.53056 -0.626478
upperneck 11.6375 2.85675 2.89372
head 4.70411 1.41341 1.24748
rclavicle 1.66979e-014 2.38542e-015
rhumerus -33.5947 -20.0339 -77.2635
rradius 30.6165
rwrist 0.813768
rhand -9.6426 -411.664
rfingers 7.12502
rthumb 16.3278 -440.996
lclavicle 1.66979e-014 2.38542e-015
lhumerus -30.3293 3.02135 83.5555
lradius 25.2422
lwrist -1.71908
lhand -22.1691 -14.0365
lfingers 7.12502
lthumb 4.24552 15.9009
rfemur -25.3074 2.79851 20.0021
rtibia 17.0735
rfoot -23.6976 -7.915
rtoes -8.99069
lfemur -46.0979 -10.7999 -21.8026
ltibia 50.6632
lfoot -7.32143 -7.18656
ltoes -35.3016
172
root 16.9105 16.2877 21.7624 -157.097 -11.4677 174.569
lowerback -22.7865 -0.734479 -6.57186
upperback 1.55835 0.833995 -0.817329
thorax 14.6071 -0.156097 3.10236
lowerneck -4.94163 2.56144 -0.491605
upperneck 11.7117 2.88794 2.82065
head 4.72611 1.42912 1.2007
rclavicle -1.48095e-014 -1.2921e-014
rhumerus -33.7515 -19.8531 -77.265
rradius 30.8252
rwrist 0.586501
rhand -9.54975 -411.444
rfingers 7.12502
rthumb 16.4172 -440.77
lclavicle -1.48095e-014 -1.2921e-014
lhumerus -30.57 2.83704 83.5301
lradius 25.3463
lwrist -1.73526
lhand -22.0599 -13.9195
lfingers 7.12502
lthumb 4.35093 16.0158
rfemur -25.177 2.54213 20.0672
rtibia 17.0676
rfoot -23.8406 -8.18054
rtoes -10.3383
lfemur -47.4572 -10.2934 -22.0743
ltibia 53.6735
lfoot -7.68947 -7.94478
ltoes -31.7102
173
root 16.9169 16.288 21.7712 -157.189 -11.8658 174.606
lowerback -22.5148 -0.739065 -6.36555
upperback 1.56152 0.746728 -0.750746
thorax 14.4621 -0.174541 3.02929
lowerneck -4.90482 2.52167 -0.512608
upperneck 11.7249 2.83884 2.79017
head 4.72452 1.40195 1.19084
rclavicle 1.53064e-014 1.53064e-014
rhumerus -33.734 -19.7536 -77.2282
rradius 30.876
rwrist 0.330834
rhand -9.42902 -410.143
rfingers 7.12502
rthumb 16.5334 -439.458
lclavicle 1.53064e-014 1.53064e-014
lhumerus -30.7535 2.79283 83.5496
lradius 25.4196
lwrist -1.60925
lhand -21.5927 -13.842
lfingers 7.12502
lthumb 4.8021 16.0836
rfemur -25.1181 2.29334 20.2159
rtibia 17.1538
rfoot -23.8327 -8.42638
rtoes -11.3229
lfemur -48.9078 -9.76424 -22.2402
ltibia 56.8035
lfoot -8.04659 -8.53669
ltoes -28.9882
174
root 16.9216 16.2892 21.7724 -157.236 -12.0408 174.406
lowerback -22.3938 -0.756474 -6.38507
upperback 1.6232 0.730439 -0.782663
thorax 14.4675 -0.181513 2.99729
lowerneck -4.88043 2.58689 -0.720124
upperneck 11.7014 2.9297 2.94712
head 4.70369 1.44569 1.28535
rclavicle -3.8763e-015 -2.46493e-014
rhumerus -33.6151 -19.6456 -77.2956
rradius 30.8224
rwrist -0.179935
rhand -8.27872 -413.306
rfingers 7.12502
rthumb 17.6406 -442.526
lclavicle -3.8763e-015 -2.46493e-014
lhumerus -30.7961 2.79458 83.537
lradius 25.3962
lwrist -1.46757
lhand -21.1938 -13.6214
lfingers 7.12502
lthumb 5.18725 16.2951
rfemur -25.0489 2.12013 20.0526
rtibia 17.2841
rfoot -23.8314 -8.7257
rtoes -13.0588
lfemur -50.0334 -9.20726 -22.76
ltibia 59.3328
lfoot -8.34496 -7.96905
ltoes -31.2237
175
root 16.9415 16.2763 21.8077 -157.186 -13.4251 174.999
lowerback -21.9242 -0.927628 -5.54926
upperback 1.49892 0.207016 -0.479836
thorax 14.0946 -0.349883 2.68868
lowerneck -4.84965 2.70263 -0.825841
upperneck 11.7848 3.07486 3.06668
head 4.72139 1.51634 1.3537
rclavicle 3.926e-015 -2.92213e-014
rhumerus -33.5708 -19.6981 -77.2056
rradius 30.9768
rwrist 0.287915
rhand -8.74618 -413.242
rfingers 7.12502
rthumb 17.1908 -442.501
lclavicle 3.926e-015 -2.92213e-014
lhumerus -30.8605 2.74411 83.5407
lradius 25.3771
lwrist -1.42079
lhand -21.3114 -13.6679
lfingers 7.12502
lthumb 5.07371 16.2514
rfemur -25.1876 1.6415 21.08
rtibia 17.3299
rfoot -23.863 -9.3339
rtoes -13.2491
lfemur -52.1213 -9.22629 -22.0061
ltibia 62.6476
lfoot -8.92475 -7.91731
ltoes -32.1281
